<?xml version="1.0" encoding="UTF-8" standalone="no"?><!DOCTYPE svg PUBLIC "-//W3C//DTD SVG 1.1//EN" "http://www.w3.org/Graphics/SVG/1.1/DTD/svg11.dtd"><!-- Generated by graphviz version 2.40.1 (20161225.0304)
 --><!-- Title: ArbolBinario_10 Pages: 1 --><svg xmlns="http://www.w3.org/2000/svg" xmlns:xlink="http://www.w3.org/1999/xlink" width="1085pt" height="332pt" viewBox="0.00 0.00 1085.22 332.00">
<g id="graph0" class="graph" transform="scale(1 1) rotate(0) translate(4 328)">
<title>ArbolBinario_10</title>
<polygon fill="#ffffff" stroke="transparent" points="-4,4 -4,-328 1081.2212,-328 1081.2212,4 -4,4"/>
<!-- n0_162 -->
<g id="node1" class="node">
<title>n0_162</title>
<ellipse fill="none" stroke="#000000" cx="473.3451" cy="-306" rx="40.0147" ry="18"/>
<text text-anchor="middle" x="473.3451" y="-301.8" font-family="Times,serif" font-size="14.00" fill="#000000">n0_162</text>
</g>
<!-- n3_140 -->
<g id="node2" class="node">
<title>n3_140</title>
<ellipse fill="none" stroke="#000000" cx="356.3451" cy="-234" rx="40.0147" ry="18"/>
<text text-anchor="middle" x="356.3451" y="-229.8" font-family="Times,serif" font-size="14.00" fill="#000000">n3_140</text>
</g>
<!-- n0_162&#45;&gt;n3_140 -->
<g id="edge1" class="edge">
<title>n0_162-&gt;n3_140</title>
<path fill="none" stroke="#000000" d="M449.6684,-291.4297C432.1446,-280.6459 408.0663,-265.8285 388.7569,-253.9458"/>
<polygon fill="#000000" stroke="#000000" points="390.3375,-250.8088 379.9865,-248.5486 386.6688,-256.7704 390.3375,-250.8088"/>
</g>
<!-- n1_165 -->
<g id="node9" class="node">
<title>n1_165</title>
<ellipse fill="none" stroke="#000000" cx="587.3451" cy="-234" rx="40.0147" ry="18"/>
<text text-anchor="middle" x="587.3451" y="-229.8" font-family="Times,serif" font-size="14.00" fill="#000000">n1_165</text>
</g>
<!-- n0_162&#45;&gt;n1_165 -->
<g id="edge8" class="edge">
<title>n0_162-&gt;n1_165</title>
<path fill="none" stroke="#000000" d="M496.6897,-291.256C513.6727,-280.5299 536.8658,-265.8816 555.5412,-254.0866"/>
<polygon fill="#000000" stroke="#000000" points="557.4457,-257.0235 564.0316,-248.7243 553.7077,-251.1051 557.4457,-257.0235"/>
</g>
<!-- n6_87 -->
<g id="node3" class="node">
<title>n6_87</title>
<ellipse fill="none" stroke="#000000" cx="175.3451" cy="-162" rx="35.3587" ry="18"/>
<text text-anchor="middle" x="175.3451" y="-157.8" font-family="Times,serif" font-size="14.00" fill="#000000">n6_87</text>
</g>
<!-- n3_140&#45;&gt;n6_87 -->
<g id="edge2" class="edge">
<title>n3_140-&gt;n6_87</title>
<path fill="none" stroke="#000000" d="M326.0497,-221.9488C294.9072,-209.5606 246.3574,-190.248 212.8186,-176.9066"/>
<polygon fill="#000000" stroke="#000000" points="213.942,-173.5868 203.3565,-173.1427 211.3546,-180.0911 213.942,-173.5868"/>
</g>
<!-- n5_150 -->
<g id="node6" class="node">
<title>n5_150</title>
<ellipse fill="none" stroke="#000000" cx="356.3451" cy="-162" rx="40.0147" ry="18"/>
<text text-anchor="middle" x="356.3451" y="-157.8" font-family="Times,serif" font-size="14.00" fill="#000000">n5_150</text>
</g>
<!-- n3_140&#45;&gt;n5_150 -->
<g id="edge5" class="edge">
<title>n3_140-&gt;n5_150</title>
<path fill="none" stroke="#000000" d="M356.3451,-215.8314C356.3451,-208.131 356.3451,-198.9743 356.3451,-190.4166"/>
<polygon fill="#000000" stroke="#000000" points="359.8452,-190.4132 356.3451,-180.4133 352.8452,-190.4133 359.8452,-190.4132"/>
</g>
<!-- n6_nullizq -->
<g id="node4" class="node">
<title>n6_nullizq</title>
<ellipse fill="none" stroke="#000000" cx="52.3451" cy="-90" rx="52.1906" ry="18"/>
<text text-anchor="middle" x="52.3451" y="-85.8" font-family="Times,serif" font-size="14.00" fill="#000000">n6_nullizq</text>
</g>
<!-- n6_87&#45;&gt;n6_nullizq -->
<g id="edge3" class="edge">
<title>n6_87-&gt;n6_nullizq</title>
<path fill="none" stroke="#000000" d="M151.9202,-148.2879C133.8266,-137.6965 108.4839,-122.8618 87.8939,-110.8091"/>
<polygon fill="#000000" stroke="#000000" points="89.5024,-107.6951 79.1041,-105.6638 85.9661,-113.7362 89.5024,-107.6951"/>
</g>
<!-- n6_nullder -->
<g id="node5" class="node">
<title>n6_nullder</title>
<ellipse fill="none" stroke="#000000" cx="175.3451" cy="-90" rx="52.7527" ry="18"/>
<text text-anchor="middle" x="175.3451" y="-85.8" font-family="Times,serif" font-size="14.00" fill="#000000">n6_nullder</text>
</g>
<!-- n6_87&#45;&gt;n6_nullder -->
<g id="edge4" class="edge">
<title>n6_87-&gt;n6_nullder</title>
<path fill="none" stroke="#000000" d="M175.3451,-143.8314C175.3451,-136.131 175.3451,-126.9743 175.3451,-118.4166"/>
<polygon fill="#000000" stroke="#000000" points="178.8452,-118.4132 175.3451,-108.4133 171.8452,-118.4133 178.8452,-118.4132"/>
</g>
<!-- n5_nullizq -->
<g id="node7" class="node">
<title>n5_nullizq</title>
<ellipse fill="none" stroke="#000000" cx="298.3451" cy="-90" rx="52.1906" ry="18"/>
<text text-anchor="middle" x="298.3451" y="-85.8" font-family="Times,serif" font-size="14.00" fill="#000000">n5_nullizq</text>
</g>
<!-- n5_150&#45;&gt;n5_nullizq -->
<g id="edge6" class="edge">
<title>n5_150-&gt;n5_nullizq</title>
<path fill="none" stroke="#000000" d="M342.5999,-144.937C335.4814,-136.1003 326.6486,-125.1354 318.7507,-115.3311"/>
<polygon fill="#000000" stroke="#000000" points="321.3935,-113.0326 312.3945,-107.4407 315.9422,-117.4239 321.3935,-113.0326"/>
</g>
<!-- n5_nullder -->
<g id="node8" class="node">
<title>n5_nullder</title>
<ellipse fill="none" stroke="#000000" cx="421.3451" cy="-90" rx="52.7527" ry="18"/>
<text text-anchor="middle" x="421.3451" y="-85.8" font-family="Times,serif" font-size="14.00" fill="#000000">n5_nullder</text>
</g>
<!-- n5_150&#45;&gt;n5_nullder -->
<g id="edge7" class="edge">
<title>n5_150-&gt;n5_nullder</title>
<path fill="none" stroke="#000000" d="M371.4207,-145.3008C379.4699,-136.3848 389.5435,-125.2264 398.5299,-115.2722"/>
<polygon fill="#000000" stroke="#000000" points="401.3411,-117.3813 405.4443,-107.6132 396.1453,-112.6905 401.3411,-117.3813"/>
</g>
<!-- n2_164 -->
<g id="node10" class="node">
<title>n2_164</title>
<ellipse fill="none" stroke="#000000" cx="587.3451" cy="-162" rx="40.0147" ry="18"/>
<text text-anchor="middle" x="587.3451" y="-157.8" font-family="Times,serif" font-size="14.00" fill="#000000">n2_164</text>
</g>
<!-- n1_165&#45;&gt;n2_164 -->
<g id="edge9" class="edge">
<title>n1_165-&gt;n2_164</title>
<path fill="none" stroke="#000000" d="M587.3451,-215.8314C587.3451,-208.131 587.3451,-198.9743 587.3451,-190.4166"/>
<polygon fill="#000000" stroke="#000000" points="590.8452,-190.4132 587.3451,-180.4133 583.8452,-190.4133 590.8452,-190.4132"/>
</g>
<!-- n4_174 -->
<g id="node15" class="node">
<title>n4_174</title>
<ellipse fill="none" stroke="#000000" cx="766.3451" cy="-162" rx="40.0147" ry="18"/>
<text text-anchor="middle" x="766.3451" y="-157.8" font-family="Times,serif" font-size="14.00" fill="#000000">n4_174</text>
</g>
<!-- n1_165&#45;&gt;n4_174 -->
<g id="edge14" class="edge">
<title>n1_165-&gt;n4_174</title>
<path fill="none" stroke="#000000" d="M617.3056,-221.9488C647.3794,-209.8521 693.8675,-191.153 726.9201,-177.8581"/>
<polygon fill="#000000" stroke="#000000" points="728.3153,-181.0695 736.2867,-174.0905 725.703,-174.5752 728.3153,-181.0695"/>
</g>
<!-- n8_164 -->
<g id="node11" class="node">
<title>n8_164</title>
<ellipse fill="none" stroke="#000000" cx="532.3451" cy="-90" rx="40.0147" ry="18"/>
<text text-anchor="middle" x="532.3451" y="-85.8" font-family="Times,serif" font-size="14.00" fill="#000000">n8_164</text>
</g>
<!-- n2_164&#45;&gt;n8_164 -->
<g id="edge10" class="edge">
<title>n2_164-&gt;n8_164</title>
<path fill="none" stroke="#000000" d="M574.3108,-144.937C567.628,-136.1886 559.3519,-125.3545 551.9202,-115.6256"/>
<polygon fill="#000000" stroke="#000000" points="554.5196,-113.2627 545.6678,-107.4407 548.9569,-117.5121 554.5196,-113.2627"/>
</g>
<!-- n2_nullder -->
<g id="node14" class="node">
<title>n2_nullder</title>
<ellipse fill="none" stroke="#000000" cx="643.3451" cy="-90" rx="52.7527" ry="18"/>
<text text-anchor="middle" x="643.3451" y="-85.8" font-family="Times,serif" font-size="14.00" fill="#000000">n2_nullder</text>
</g>
<!-- n2_164&#45;&gt;n2_nullder -->
<g id="edge13" class="edge">
<title>n2_164-&gt;n2_nullder</title>
<path fill="none" stroke="#000000" d="M600.6163,-144.937C607.4206,-136.1886 615.8471,-125.3545 623.414,-115.6256"/>
<polygon fill="#000000" stroke="#000000" points="626.4034,-117.483 629.7801,-107.4407 620.8779,-113.1854 626.4034,-117.483"/>
</g>
<!-- n8_nullizq -->
<g id="node12" class="node">
<title>n8_nullizq</title>
<ellipse fill="none" stroke="#000000" cx="409.3451" cy="-18" rx="52.1906" ry="18"/>
<text text-anchor="middle" x="409.3451" y="-13.8" font-family="Times,serif" font-size="14.00" fill="#000000">n8_nullizq</text>
</g>
<!-- n8_164&#45;&gt;n8_nullizq -->
<g id="edge11" class="edge">
<title>n8_164-&gt;n8_nullizq</title>
<path fill="none" stroke="#000000" d="M507.7498,-75.6028C489.7543,-65.0688 465.0692,-50.619 444.925,-38.8273"/>
<polygon fill="#000000" stroke="#000000" points="446.4278,-35.6514 436.0295,-33.6202 442.8915,-41.6926 446.4278,-35.6514"/>
</g>
<!-- n8_nullder -->
<g id="node13" class="node">
<title>n8_nullder</title>
<ellipse fill="none" stroke="#000000" cx="532.3451" cy="-18" rx="52.7527" ry="18"/>
<text text-anchor="middle" x="532.3451" y="-13.8" font-family="Times,serif" font-size="14.00" fill="#000000">n8_nullder</text>
</g>
<!-- n8_164&#45;&gt;n8_nullder -->
<g id="edge12" class="edge">
<title>n8_164-&gt;n8_nullder</title>
<path fill="none" stroke="#000000" d="M532.3451,-71.8314C532.3451,-64.131 532.3451,-54.9743 532.3451,-46.4166"/>
<polygon fill="#000000" stroke="#000000" points="535.8452,-46.4132 532.3451,-36.4133 528.8452,-46.4133 535.8452,-46.4132"/>
</g>
<!-- n7_172 -->
<g id="node16" class="node">
<title>n7_172</title>
<ellipse fill="none" stroke="#000000" cx="766.3451" cy="-90" rx="40.0147" ry="18"/>
<text text-anchor="middle" x="766.3451" y="-85.8" font-family="Times,serif" font-size="14.00" fill="#000000">n7_172</text>
</g>
<!-- n4_174&#45;&gt;n7_172 -->
<g id="edge15" class="edge">
<title>n4_174-&gt;n7_172</title>
<path fill="none" stroke="#000000" d="M766.3451,-143.8314C766.3451,-136.131 766.3451,-126.9743 766.3451,-118.4166"/>
<polygon fill="#000000" stroke="#000000" points="769.8452,-118.4132 766.3451,-108.4133 762.8452,-118.4133 769.8452,-118.4132"/>
</g>
<!-- n9_182 -->
<g id="node19" class="node">
<title>n9_182</title>
<ellipse fill="none" stroke="#000000" cx="901.3451" cy="-90" rx="40.0147" ry="18"/>
<text text-anchor="middle" x="901.3451" y="-85.8" font-family="Times,serif" font-size="14.00" fill="#000000">n9_182</text>
</g>
<!-- n4_174&#45;&gt;n9_182 -->
<g id="edge18" class="edge">
<title>n4_174-&gt;n9_182</title>
<path fill="none" stroke="#000000" d="M792.3744,-148.1177C813.4784,-136.8622 843.4127,-120.8972 866.5689,-108.5473"/>
<polygon fill="#000000" stroke="#000000" points="868.2191,-111.6339 875.3956,-103.8397 864.925,-105.4574 868.2191,-111.6339"/>
</g>
<!-- n7_nullizq -->
<g id="node17" class="node">
<title>n7_nullizq</title>
<ellipse fill="none" stroke="#000000" cx="655.3451" cy="-18" rx="52.1906" ry="18"/>
<text text-anchor="middle" x="655.3451" y="-13.8" font-family="Times,serif" font-size="14.00" fill="#000000">n7_nullizq</text>
</g>
<!-- n7_172&#45;&gt;n7_nullizq -->
<g id="edge16" class="edge">
<title>n7_172-&gt;n7_nullizq</title>
<path fill="none" stroke="#000000" d="M743.3458,-75.0816C727.664,-64.9096 706.6371,-51.2705 689.0695,-39.8753"/>
<polygon fill="#000000" stroke="#000000" points="690.5391,-36.6568 680.2448,-34.1512 686.7298,-42.5295 690.5391,-36.6568"/>
</g>
<!-- n7_nullder -->
<g id="node18" class="node">
<title>n7_nullder</title>
<ellipse fill="none" stroke="#000000" cx="778.3451" cy="-18" rx="52.7527" ry="18"/>
<text text-anchor="middle" x="778.3451" y="-13.8" font-family="Times,serif" font-size="14.00" fill="#000000">n7_nullder</text>
</g>
<!-- n7_172&#45;&gt;n7_nullder -->
<g id="edge17" class="edge">
<title>n7_172-&gt;n7_nullder</title>
<path fill="none" stroke="#000000" d="M769.3732,-71.8314C770.6566,-64.131 772.1827,-54.9743 773.6089,-46.4166"/>
<polygon fill="#000000" stroke="#000000" points="777.0845,-46.8526 775.2762,-36.4133 770.1797,-45.7018 777.0845,-46.8526"/>
</g>
<!-- n9_nullizq -->
<g id="node20" class="node">
<title>n9_nullizq</title>
<ellipse fill="none" stroke="#000000" cx="901.3451" cy="-18" rx="52.1906" ry="18"/>
<text text-anchor="middle" x="901.3451" y="-13.8" font-family="Times,serif" font-size="14.00" fill="#000000">n9_nullizq</text>
</g>
<!-- n9_182&#45;&gt;n9_nullizq -->
<g id="edge19" class="edge">
<title>n9_182-&gt;n9_nullizq</title>
<path fill="none" stroke="#000000" d="M901.3451,-71.8314C901.3451,-64.131 901.3451,-54.9743 901.3451,-46.4166"/>
<polygon fill="#000000" stroke="#000000" points="904.8452,-46.4132 901.3451,-36.4133 897.8452,-46.4133 904.8452,-46.4132"/>
</g>
<!-- n9_nullder -->
<g id="node21" class="node">
<title>n9_nullder</title>
<ellipse fill="none" stroke="#000000" cx="1024.3451" cy="-18" rx="52.7527" ry="18"/>
<text text-anchor="middle" x="1024.3451" y="-13.8" font-family="Times,serif" font-size="14.00" fill="#000000">n9_nullder</text>
</g>
<!-- n9_182&#45;&gt;n9_nullder -->
<g id="edge20" class="edge">
<title>n9_182-&gt;n9_nullder</title>
<path fill="none" stroke="#000000" d="M925.9403,-75.6028C943.9358,-65.0688 968.621,-50.619 988.7651,-38.8273"/>
<polygon fill="#000000" stroke="#000000" points="990.7986,-41.6926 997.6606,-33.6202 987.2623,-35.6514 990.7986,-41.6926"/>
</g>
</g>
</svg>